{
 "cells": [
  {
   "cell_type": "markdown",
   "id": "bc71c82b",
   "metadata": {},
   "source": [
    "The Art of Money Getting; Or, Golden Rules for Making Money by P. T. Barnum\n",
    "\n",
    "Source https://www.gutenberg.org/ebooks/8581\n",
    "\n",
    "Ref https://en.wikipedia.org/wiki/P._T._Barnum"
   ]
  },
  {
   "cell_type": "code",
   "execution_count": null,
   "id": "8e0fc48f",
   "metadata": {},
   "outputs": [],
   "source": [
    "# Concept art\n",
    "\n",
    "Summary: \n",
    "\n",
    "Genre: \n",
    "\n",
    "Background: \n",
    "\n",
    "Main charactor:\n",
    "\n",
    "Prompt:\n",
    "Golden Rules for Making Money,\n",
    "america, 1880, financial advice\n",
    "--ar 3:2 --no text\n",
    "\n",
    "The Art of Getting Money,\n",
    "america, Gilded Age, financial advice\n",
    "--ar 3:2 --no text\n",
    "    \n",
    "The Art of Getting Money,\n",
    "america, Gilded Age, financial advice\n",
    "--ar 3:2 --no text --no hands\n",
    "    "
   ]
  },
  {
   "cell_type": "code",
   "execution_count": null,
   "id": "067f0547",
   "metadata": {},
   "outputs": [],
   "source": [
    "# Youtube description\n",
    "\n",
    "Prompt: Write title, description, and keywords of youtube video of full audiobook of the classic book\n",
    "    \"ART OF MONEY GETTING or, Golden Rules for Making Money\" by P. T. Barnum\n",
    "    \n",
    "Title: \"The Art of Money Getting by P. T. Barnum: Full Audiobook Edition\"\n",
    "\n",
    "Description: Learn the secrets to making money from one of the greatest showmen of all time with this full audiobook edition of P. T. Barnum's \"The Art of Money Getting.\"\n",
    "Get practical tips and advice on how to build wealth and financial success, straight from the man who knew how to make a dollar like no one else. \n",
    "Listen to the audiobook and start your journey towards financial prosperity today.\n",
    "\n",
    "Keywords: The Art of Money Getting, P. T. Barnum, full audiobook, classic literature, financial success, wealth building, practical tips, financial prosperity, showmanship, making money, financial advice\n",
    "\n",
    "0:00:00 Chapter 1\n",
    "0:25:04 Chaptor 2\n",
    "0:29:27 Chaptor 3\n",
    "0:34:22 Chaptor 4\n",
    "0:37:40 Chaptor 5\n",
    "0:40:06 Chaptor 6\n",
    "0:44:55 Chaptor 7\n",
    "0:47:10 Chaptor 8\n",
    "0:56:47 Chaptor 9\n",
    "0:57:15 Chaptor 10\n",
    "0:57:45 Chaptor 11\n",
    "0:58:36 Chaptor 12\n",
    "1:02:47 Chaptor 13\n",
    "1:03:19 Chaptor 14\n",
    "1:05:30 Chaptor 15\n",
    "1:09:50 Chaptor 16\n",
    "1:18:08 Chaptor 17\n",
    "1:20:32 Chaptor 18\n",
    "1:21:42 Chaptor 19\n",
    "1:22:27 Chaptor 20\n",
    "        \n",
    "Credits\n",
    "Text: Project Gutenberg https://www.gutenberg.org/ebooks/8581\n",
    "Voice: Google Cloud Text-to-Speech\n",
    "Produced by: The Classic Narrator 2023"
   ]
  },
  {
   "cell_type": "code",
   "execution_count": null,
   "id": "77a554fb",
   "metadata": {},
   "outputs": [],
   "source": [
    "# Voice test\n",
    "\n",
    "from TextToAudiobook import *\n",
    "test_tta = TextToAudiobook(\"test\")\n",
    "\n",
    "\n",
    "\n",
    "text = '''\n",
    "\n",
    "xxxx\n",
    "\n",
    "'''\n",
    "\n",
    "# Test voices\n",
    "voice = texttospeech.VoiceSelectionParams(\n",
    "    language_code=\"en-GB\",\n",
    "    name=\"en-GB-Neural2-A\",\n",
    ")\n",
    "\n",
    "voice = texttospeech.VoiceSelectionParams(\n",
    "    language_code=\"en-GB\",\n",
    "    name=\"en-GB-Standard-A\",\n",
    ")\n",
    "\n",
    "\n",
    "audio_config = texttospeech.AudioConfig(\n",
    "    audio_encoding=texttospeech.AudioEncoding.MP3,\n",
    "    speaking_rate=0.9\n",
    ")\n",
    "\n",
    "test_tta.synthesize_ssml(text, \"output.mp3\", voice, audio_config)\n",
    "# test_tta.synthesize_text(text, \"output.mp3\", voice, audio_config)\n",
    "\n"
   ]
  },
  {
   "cell_type": "code",
   "execution_count": 1,
   "id": "0326b8d9",
   "metadata": {},
   "outputs": [],
   "source": [
    "%load_ext autoreload\n",
    "%reload_ext autoreload\n",
    "%autoreload 2"
   ]
  },
  {
   "cell_type": "code",
   "execution_count": 5,
   "id": "c3793734",
   "metadata": {},
   "outputs": [],
   "source": [
    "# Text to script\n",
    "\n",
    "from TextToAudiobook import *\n",
    "\n",
    "folder_name = \"ArtofMoneyGetting\"\n",
    "file_name = \"8581-1.txt\"\n",
    "\n",
    "test_tta = TextToAudiobook(folder_name, char_limit_per_call=2000)"
   ]
  },
  {
   "cell_type": "code",
   "execution_count": 6,
   "id": "4b63cb09",
   "metadata": {},
   "outputs": [
    {
     "name": "stdout",
     "output_type": "stream",
     "text": [
      "Clean: 1396 lines\n",
      "./ArtofMoneyGetting/project_file/clean/8581-1.txt\n",
      "Tag: 1396 lines\n",
      "./ArtofMoneyGetting/project_file/tag/8581-1.txt\n",
      "Break: 1396 lines\n",
      "./ArtofMoneyGetting/project_file/break/8581-1.txt\n",
      "Split: 55 files\n",
      "./ArtofMoneyGetting/project_file/split/8581-1_txt/\n"
     ]
    }
   ],
   "source": [
    "#1 Clean raw file and copy to clean folder\n",
    "print(test_tta.clean_txt_raw(file_name))\n",
    "\n",
    "#2 Tag speech in clean file and copy to tag folder\n",
    "print(test_tta.tag_txt_clean(file_name))\n",
    "\n",
    "#3 Mark break point by chapter and characters limit\n",
    "print(test_tta.break_txt_tag(file_name))\n",
    "\n",
    "#4 Split into files by chapter and characters break\n",
    "print(test_tta.split_txt_break(file_name))"
   ]
  },
  {
   "cell_type": "code",
   "execution_count": 9,
   "id": "750cd4eb",
   "metadata": {},
   "outputs": [
    {
     "name": "stdout",
     "output_type": "stream",
     "text": [
      "Generate audio => ./ArtofMoneyGetting/project_file/audio/8581-1_txt/0000_006.mp3\n",
      "Generate audio => ./ArtofMoneyGetting/project_file/audio/8581-1_txt/0000_007.mp3\n",
      "Generate audio => ./ArtofMoneyGetting/project_file/audio/8581-1_txt/0000_008.mp3\n",
      "Generate audio => ./ArtofMoneyGetting/project_file/audio/8581-1_txt/0000_009.mp3\n",
      "Generate audio => ./ArtofMoneyGetting/project_file/audio/8581-1_txt/0000_010.mp3\n",
      "Generate audio => ./ArtofMoneyGetting/project_file/audio/8581-1_txt/0000_011.mp3\n",
      "Generate audio => ./ArtofMoneyGetting/project_file/audio/8581-1_txt/0001_001.mp3\n",
      "Generate audio => ./ArtofMoneyGetting/project_file/audio/8581-1_txt/0001_002.mp3\n",
      "Generate audio => ./ArtofMoneyGetting/project_file/audio/8581-1_txt/0002_001.mp3\n",
      "Generate audio => ./ArtofMoneyGetting/project_file/audio/8581-1_txt/0002_002.mp3\n",
      "Generate audio => ./ArtofMoneyGetting/project_file/audio/8581-1_txt/0002_003.mp3\n",
      "Generate audio => ./ArtofMoneyGetting/project_file/audio/8581-1_txt/0003_001.mp3\n",
      "Generate audio => ./ArtofMoneyGetting/project_file/audio/8581-1_txt/0003_002.mp3\n",
      "Generate audio => ./ArtofMoneyGetting/project_file/audio/8581-1_txt/0003_003.mp3\n",
      "Generate audio => ./ArtofMoneyGetting/project_file/audio/8581-1_txt/0004_001.mp3\n",
      "Generate audio => ./ArtofMoneyGetting/project_file/audio/8581-1_txt/0004_002.mp3\n",
      "Generate audio => ./ArtofMoneyGetting/project_file/audio/8581-1_txt/0005_001.mp3\n",
      "Generate audio => ./ArtofMoneyGetting/project_file/audio/8581-1_txt/0005_002.mp3\n",
      "Generate audio => ./ArtofMoneyGetting/project_file/audio/8581-1_txt/0006_001.mp3\n",
      "Generate audio => ./ArtofMoneyGetting/project_file/audio/8581-1_txt/0006_002.mp3\n",
      "Generate audio => ./ArtofMoneyGetting/project_file/audio/8581-1_txt/0006_003.mp3\n",
      "Generate audio => ./ArtofMoneyGetting/project_file/audio/8581-1_txt/0007_001.mp3\n",
      "Generate audio => ./ArtofMoneyGetting/project_file/audio/8581-1_txt/0007_002.mp3\n",
      "Generate audio => ./ArtofMoneyGetting/project_file/audio/8581-1_txt/0008_001.mp3\n",
      "Generate audio => ./ArtofMoneyGetting/project_file/audio/8581-1_txt/0008_002.mp3\n",
      "Generate audio => ./ArtofMoneyGetting/project_file/audio/8581-1_txt/0008_003.mp3\n",
      "Generate audio => ./ArtofMoneyGetting/project_file/audio/8581-1_txt/0008_004.mp3\n",
      "Generate audio => ./ArtofMoneyGetting/project_file/audio/8581-1_txt/0008_005.mp3\n",
      "Generate audio => ./ArtofMoneyGetting/project_file/audio/8581-1_txt/0009_001.mp3\n",
      "Generate audio => ./ArtofMoneyGetting/project_file/audio/8581-1_txt/0010_001.mp3\n",
      "Generate audio => ./ArtofMoneyGetting/project_file/audio/8581-1_txt/0011_001.mp3\n",
      "Generate audio => ./ArtofMoneyGetting/project_file/audio/8581-1_txt/0012_001.mp3\n",
      "Generate audio => ./ArtofMoneyGetting/project_file/audio/8581-1_txt/0012_002.mp3\n",
      "Generate audio => ./ArtofMoneyGetting/project_file/audio/8581-1_txt/0012_003.mp3\n",
      "Generate audio => ./ArtofMoneyGetting/project_file/audio/8581-1_txt/0013_001.mp3\n",
      "Generate audio => ./ArtofMoneyGetting/project_file/audio/8581-1_txt/0014_001.mp3\n",
      "Generate audio => ./ArtofMoneyGetting/project_file/audio/8581-1_txt/0014_002.mp3\n",
      "Generate audio => ./ArtofMoneyGetting/project_file/audio/8581-1_txt/0015_001.mp3\n",
      "Generate audio => ./ArtofMoneyGetting/project_file/audio/8581-1_txt/0015_002.mp3\n",
      "Generate audio => ./ArtofMoneyGetting/project_file/audio/8581-1_txt/0016_001.mp3\n",
      "Generate audio => ./ArtofMoneyGetting/project_file/audio/8581-1_txt/0016_002.mp3\n",
      "Generate audio => ./ArtofMoneyGetting/project_file/audio/8581-1_txt/0016_003.mp3\n",
      "Generate audio => ./ArtofMoneyGetting/project_file/audio/8581-1_txt/0016_004.mp3\n",
      "Generate audio => ./ArtofMoneyGetting/project_file/audio/8581-1_txt/0017_001.mp3\n",
      "Generate audio => ./ArtofMoneyGetting/project_file/audio/8581-1_txt/0017_002.mp3\n",
      "Generate audio => ./ArtofMoneyGetting/project_file/audio/8581-1_txt/0018_001.mp3\n",
      "Generate audio => ./ArtofMoneyGetting/project_file/audio/8581-1_txt/0019_001.mp3\n",
      "Generate audio => ./ArtofMoneyGetting/project_file/audio/8581-1_txt/0020_001.mp3\n",
      "Generate audio => ./ArtofMoneyGetting/project_file/audio/8581-1_txt/0020_002.mp3\n",
      "Generate audio => ./ArtofMoneyGetting/project_file/audio/8581-1_txt/0020_003.mp3\n",
      "Synthesize: 50 files\n",
      "./ArtofMoneyGetting/project_file/audio/8581-1_txt/\n"
     ]
    }
   ],
   "source": [
    "# Split into files by chapter and characters break\n",
    "voice = texttospeech.VoiceSelectionParams(\n",
    "    language_code=\"en-US\",\n",
    "    name=\"en-US-Standard-J\",\n",
    ")\n",
    "\n",
    "audio_config = texttospeech.AudioConfig(\n",
    "    audio_encoding=texttospeech.AudioEncoding.MP3,\n",
    "    speaking_rate=0.8\n",
    ")\n",
    "print(test_tta.synthesize_txt_split(file_name, file_limit=51, voice=voice, audio_config=audio_config))\n"
   ]
  },
  {
   "cell_type": "code",
   "execution_count": 12,
   "id": "ab7994d6",
   "metadata": {},
   "outputs": [
    {
     "name": "stdout",
     "output_type": "stream",
     "text": [
      "Generate track list: ./ArtofMoneyGetting/project_file/audio/8581-1_txt/track_list.txt [total: 55 files]\n"
     ]
    },
    {
     "name": "stderr",
     "output_type": "stream",
     "text": [
      "ffmpeg version 5.1.2 Copyright (c) 2000-2022 the FFmpeg developers\n",
      "  built with Apple clang version 14.0.0 (clang-1400.0.29.102)\n",
      "  configuration: --prefix=/usr/local/Cellar/ffmpeg/5.1.2 --enable-shared --enable-pthreads --enable-version3 --cc=clang --host-cflags= --host-ldflags= --enable-ffplay --enable-gnutls --enable-gpl --enable-libaom --enable-libbluray --enable-libdav1d --enable-libmp3lame --enable-libopus --enable-librav1e --enable-librist --enable-librubberband --enable-libsnappy --enable-libsrt --enable-libtesseract --enable-libtheora --enable-libvidstab --enable-libvmaf --enable-libvorbis --enable-libvpx --enable-libwebp --enable-libx264 --enable-libx265 --enable-libxml2 --enable-libxvid --enable-lzma --enable-libfontconfig --enable-libfreetype --enable-frei0r --enable-libass --enable-libopencore-amrnb --enable-libopencore-amrwb --enable-libopenjpeg --enable-libspeex --enable-libsoxr --enable-libzmq --enable-libzimg --disable-libjack --disable-indev=jack --enable-videotoolbox\n",
      "  libavutil      57. 28.100 / 57. 28.100\n",
      "  libavcodec     59. 37.100 / 59. 37.100\n",
      "  libavformat    59. 27.100 / 59. 27.100\n",
      "  libavdevice    59.  7.100 / 59.  7.100\n",
      "  libavfilter     8. 44.100 /  8. 44.100\n",
      "  libswscale      6.  7.100 /  6.  7.100\n",
      "  libswresample   4.  7.100 /  4.  7.100\n",
      "  libpostproc    56.  6.100 / 56.  6.100\n",
      "[mp3 @ 0x7fca630075c0] Estimating duration from bitrate, this may be inaccurate\n",
      "Input #0, concat, from './ArtofMoneyGetting/project_file/audio/8581-1_txt/track_list.txt':\n",
      "  Duration: N/A, start: 0.000000, bitrate: 32 kb/s\n",
      "  Stream #0:0: Audio: mp3, 24000 Hz, mono, fltp, 32 kb/s\n",
      "Output #0, mp3, to './ArtofMoneyGetting/project_file/audio/8581-1_txt.mp3':\n",
      "  Metadata:\n",
      "    TSSE            : Lavf59.27.100\n",
      "  Stream #0:0: Audio: mp3, 24000 Hz, mono, fltp, 32 kb/s\n",
      "Stream mapping:\n",
      "  Stream #0:0 -> #0:0 (copy)\n",
      "Press [q] to stop, [?] for help\n",
      "[mp3 @ 0x7fca61f04f80] Estimating duration from bitrate, this may be inaccurate\n",
      "[mp3 @ 0x7fca61f04e00] Estimating duration from bitrate, this may be inaccurate\n",
      "[mp3 @ 0x7fca63304080] Estimating duration from bitrate, this may be inaccurate\n",
      "[mp3 @ 0x7fca61f04f40] Estimating duration from bitrate, this may be inaccurate\n",
      "[mp3 @ 0x7fca61f04f00] Estimating duration from bitrate, this may be inaccurate\n",
      "[mp3 @ 0x7fca61f04ec0] Estimating duration from bitrate, this may be inaccurate\n",
      "[mp3 @ 0x7fca61f04e00] Estimating duration from bitrate, this may be inaccurate\n",
      "    Last message repeated 1 times\n",
      "[mp3 @ 0x7fca63007340] Estimating duration from bitrate, this may be inaccurate\n",
      "[mp3 @ 0x7fca61f04fc0] Estimating duration from bitrate, this may be inaccurate\n",
      "[mp3 @ 0x7fca61f04e00] Estimating duration from bitrate, this may be inaccurate\n",
      "    Last message repeated 6 times\n",
      "[mp3 @ 0x7fca63007340] Estimating duration from bitrate, this may be inaccurate\n",
      "[mp3 @ 0x7fca63304680] Estimating duration from bitrate, this may be inaccurate\n",
      "[mp3 @ 0x7fca63009d80] Estimating duration from bitrate, this may be inaccurate\n",
      "[mp3 @ 0x7fca65104f00] Estimating duration from bitrate, this may be inaccurate\n",
      "[mp3 @ 0x7fca63009f00] Estimating duration from bitrate, this may be inaccurate\n",
      "[mp3 @ 0x7fca61f04e00] Estimating duration from bitrate, this may be inaccurate\n",
      "[mp3 @ 0x7fca63304080] Estimating duration from bitrate, this may be inaccurate\n",
      "[mp3 @ 0x7fca63304080] Estimating duration from bitrate, this may be inaccurate\n",
      "[mp3 @ 0x7fca61f04fc0] Estimating duration from bitrate, this may be inaccurate\n",
      "[mp3 @ 0x7fca63304080] Estimating duration from bitrate, this may be inaccurate\n",
      "    Last message repeated 2 times\n",
      "[mp3 @ 0x7fca61f04e00] Estimating duration from bitrate, this may be inaccurate\n",
      "[mp3 @ 0x7fca63007340] Estimating duration from bitrate, this may be inaccurate\n",
      "[mp3 @ 0x7fca63008e40] Estimating duration from bitrate, this may be inaccurate\n",
      "[mp3 @ 0x7fca63304140] Estimating duration from bitrate, this may be inaccurate\n",
      "[mp3 @ 0x7fca63008e40] Estimating duration from bitrate, this may be inaccurate\n",
      "[mp3 @ 0x7fca61f04f00] Estimating duration from bitrate, this may be inaccurate\n",
      "[mp3 @ 0x7fca651041c0] Estimating duration from bitrate, this may be inaccurate\n",
      "[mp3 @ 0x7fca65104180] Estimating duration from bitrate, this may be inaccurate\n",
      "[mp3 @ 0x7fca6300d100] Estimating duration from bitrate, this may be inaccurate\n",
      "[mp3 @ 0x7fca633042c0] Estimating duration from bitrate, this may be inaccurate\n",
      "[mp3 @ 0x7fca61f04e40] Estimating duration from bitrate, this may be inaccurate\n",
      "[mp3 @ 0x7fca651040c0] Estimating duration from bitrate, this may be inaccurate\n",
      "[mp3 @ 0x7fca61f04e40] Estimating duration from bitrate, this may be inaccurate\n",
      "[mp3 @ 0x7fca65104240] Estimating duration from bitrate, this may be inaccurate\n",
      "[mp3 @ 0x7fca61f04e40] Estimating duration from bitrate, this may be inaccurate\n",
      "[mp3 @ 0x7fca63007340] Estimating duration from bitrate, this may be inaccurate\n",
      "    Last message repeated 1 times\n",
      "[mp3 @ 0x7fca61f04e80] Estimating duration from bitrate, this may be inaccurate\n",
      "[mp3 @ 0x7fca61f04e00] Estimating duration from bitrate, this may be inaccurate\n",
      "    Last message repeated 2 times\n",
      "[mp3 @ 0x7fca63304080] Estimating duration from bitrate, this may be inaccurate\n",
      "    Last message repeated 1 times\n",
      "[mp3 @ 0x7fca61f04e40] Estimating duration from bitrate, this may be inaccurate\n",
      "[mp3 @ 0x7fca61f04e00] Estimating duration from bitrate, this may be inaccurate\n",
      "size=   20388kB time=01:26:59.16 bitrate=  32.0kbits/s speed=5.01e+03x    \n",
      "video:0kB audio:20387kB subtitle:0kB other streams:0kB global headers:0kB muxing overhead: 0.001135%\n"
     ]
    },
    {
     "name": "stdout",
     "output_type": "stream",
     "text": [
      "Generate full audio: ./ArtofMoneyGetting/project_file/audio/8581-1_txt.mp3\n",
      "./ArtofMoneyGetting/project_file/audio/8581-1_txt.mp3\n"
     ]
    }
   ],
   "source": [
    "# Merge audio files => full length\n",
    "print(test_tta.merge_audio_files(file_name))"
   ]
  },
  {
   "cell_type": "code",
   "execution_count": 13,
   "id": "b382e4e1",
   "metadata": {},
   "outputs": [
    {
     "name": "stderr",
     "output_type": "stream",
     "text": [
      "ffmpeg version 5.1.2 Copyright (c) 2000-2022 the FFmpeg developers\n",
      "  built with Apple clang version 14.0.0 (clang-1400.0.29.102)\n",
      "  configuration: --prefix=/usr/local/Cellar/ffmpeg/5.1.2 --enable-shared --enable-pthreads --enable-version3 --cc=clang --host-cflags= --host-ldflags= --enable-ffplay --enable-gnutls --enable-gpl --enable-libaom --enable-libbluray --enable-libdav1d --enable-libmp3lame --enable-libopus --enable-librav1e --enable-librist --enable-librubberband --enable-libsnappy --enable-libsrt --enable-libtesseract --enable-libtheora --enable-libvidstab --enable-libvmaf --enable-libvorbis --enable-libvpx --enable-libwebp --enable-libx264 --enable-libx265 --enable-libxml2 --enable-libxvid --enable-lzma --enable-libfontconfig --enable-libfreetype --enable-frei0r --enable-libass --enable-libopencore-amrnb --enable-libopencore-amrwb --enable-libopenjpeg --enable-libspeex --enable-libsoxr --enable-libzmq --enable-libzimg --disable-libjack --disable-indev=jack --enable-videotoolbox\n",
      "  libavutil      57. 28.100 / 57. 28.100\n",
      "  libavcodec     59. 37.100 / 59. 37.100\n",
      "  libavformat    59. 27.100 / 59. 27.100\n",
      "  libavdevice    59.  7.100 / 59.  7.100\n",
      "  libavfilter     8. 44.100 /  8. 44.100\n",
      "  libswscale      6.  7.100 /  6.  7.100\n",
      "  libswresample   4.  7.100 /  4.  7.100\n",
      "  libpostproc    56.  6.100 / 56.  6.100\n",
      "Input #0, png_pipe, from './ArtofMoneyGetting/project_file/image/8581-1_txt.png':\n",
      "  Duration: N/A, bitrate: N/A\n",
      "  Stream #0:0: Video: png, rgba(pc), 1280x720 [SAR 2835:2835 DAR 16:9], 25 fps, 25 tbr, 25 tbn\n",
      "Input #1, mp3, from './ArtofMoneyGetting/project_file/audio/8581-1_txt.mp3':\n",
      "  Metadata:\n",
      "    encoder         : Lavf59.27.100\n",
      "  Duration: 01:26:59.16, start: 0.022042, bitrate: 32 kb/s\n",
      "  Stream #1:0: Audio: mp3, 24000 Hz, mono, fltp, 32 kb/s\n",
      "Stream mapping:\n",
      "  Stream #0:0 -> #0:0 (png (native) -> h264 (libx264))\n",
      "  Stream #1:0 -> #0:1 (mp3 (mp3float) -> aac (native))\n",
      "Press [q] to stop, [?] for help\n",
      "[libx264 @ 0x7fd16b80be80] using SAR=1/1\n",
      "[libx264 @ 0x7fd16b80be80] using cpu capabilities: MMX2 SSE2Fast SSSE3 SSE4.2 AVX FMA3 BMI2 AVX2\n",
      "[libx264 @ 0x7fd16b80be80] profile High, level 3.1, 4:2:0, 8-bit\n",
      "[libx264 @ 0x7fd16b80be80] 264 - core 164 r3095 baee400 - H.264/MPEG-4 AVC codec - Copyleft 2003-2022 - http://www.videolan.org/x264.html - options: cabac=1 ref=3 deblock=1:-3:-3 analyse=0x3:0x113 me=hex subme=7 psy=1 psy_rd=2.00:0.70 mixed_ref=1 me_range=16 chroma_me=1 trellis=1 8x8dct=1 cqm=0 deadzone=21,11 fast_pskip=1 chroma_qp_offset=-4 threads=12 lookahead_threads=2 sliced_threads=0 nr=0 decimate=1 interlaced=0 bluray_compat=0 constrained_intra=0 bframes=3 b_pyramid=2 b_adapt=1 b_bias=0 direct=1 weightb=1 open_gop=0 weightp=2 keyint=250 keyint_min=25 scenecut=40 intra_refresh=0 rc_lookahead=40 rc=crf mbtree=1 crf=23.0 qcomp=0.60 qpmin=0 qpmax=69 qpstep=4 ip_ratio=1.40 aq=1:1.20\n",
      "[aac @ 0x7fd16b80d380] Too many bits 8192.000000 > 6144 per frame requested, clamping to max\n",
      "Output #0, mp4, to './ArtofMoneyGetting/project_file/video/8581-1_txt.mp4':\n",
      "  Metadata:\n",
      "    encoder         : Lavf59.27.100\n",
      "  Stream #0:0: Video: h264 (avc1 / 0x31637661), yuv420p(tv, progressive), 1280x720 [SAR 1:1 DAR 16:9], q=2-31, 25 fps, 12800 tbn\n",
      "    Metadata:\n",
      "      encoder         : Lavc59.37.100 libx264\n",
      "    Side data:\n",
      "      cpb: bitrate max/min/avg: 0/0/0 buffer size: 0 vbv_delay: N/A\n",
      "  Stream #0:1: Audio: aac (LC) (mp4a / 0x6134706D), 24000 Hz, mono, fltp, 144 kb/s\n",
      "    Metadata:\n",
      "      encoder         : Lavc59.37.100 aac\n",
      "frame=130479 fps=112 q=28.0 size=  141312kB time=01:26:56.81 bitrate= 221.9kbits/s speed=4.48x    \r"
     ]
    },
    {
     "name": "stdout",
     "output_type": "stream",
     "text": [
      "Generate full video: ./ArtofMoneyGetting/project_file/video/8581-1_txt.mp4\n",
      "./ArtofMoneyGetting/project_file/video/8581-1_txt.mp4\n"
     ]
    },
    {
     "name": "stderr",
     "output_type": "stream",
     "text": [
      "frame=130535 fps=112 q=-1.0 Lsize=  144849kB time=01:27:01.28 bitrate= 227.3kbits/s speed=4.48x    \n",
      "video:90380kB audio:51316kB subtitle:0kB other streams:0kB global headers:0kB muxing overhead: 2.225700%\n",
      "[libx264 @ 0x7fd16b80be80] frame I:523   Avg QP:14.21  size:124081\n",
      "[libx264 @ 0x7fd16b80be80] frame P:32895 Avg QP:14.28  size:   517\n",
      "[libx264 @ 0x7fd16b80be80] frame B:97117 Avg QP:22.32  size:   110\n",
      "[libx264 @ 0x7fd16b80be80] consecutive B-frames:  0.8%  0.0%  0.0% 99.2%\n",
      "[libx264 @ 0x7fd16b80be80] mb I  I16..4:  2.0% 70.1% 27.9%\n",
      "[libx264 @ 0x7fd16b80be80] mb P  I16..4:  0.0%  0.0%  0.0%  P16..4:  1.6%  0.2%  0.2%  0.0%  0.0%    skip:98.0%\n",
      "[libx264 @ 0x7fd16b80be80] mb B  I16..4:  0.0%  0.0%  0.0%  B16..8:  2.4%  0.0%  0.0%  direct: 0.0%  skip:97.6%  L0:65.9% L1:33.9% BI: 0.2%\n",
      "[libx264 @ 0x7fd16b80be80] 8x8 transform intra:70.1% inter:87.5%\n",
      "[libx264 @ 0x7fd16b80be80] coded y,uvDC,uvAC intra: 96.3% 98.5% 96.6% inter: 0.3% 0.1% 0.0%\n",
      "[libx264 @ 0x7fd16b80be80] i16 v,h,dc,p: 18%  3%  1% 78%\n",
      "[libx264 @ 0x7fd16b80be80] i8 v,h,dc,ddl,ddr,vr,hd,vl,hu: 37% 20%  8%  3%  6%  9%  5%  5%  7%\n",
      "[libx264 @ 0x7fd16b80be80] i4 v,h,dc,ddl,ddr,vr,hd,vl,hu: 26% 16%  6%  6% 11% 12%  9%  7%  7%\n",
      "[libx264 @ 0x7fd16b80be80] i8c dc,h,v,p: 33% 22% 37%  8%\n",
      "[libx264 @ 0x7fd16b80be80] Weighted P-Frames: Y:0.0% UV:0.0%\n",
      "[libx264 @ 0x7fd16b80be80] ref P L0: 72.9%  0.2% 26.3%  0.7%\n",
      "[libx264 @ 0x7fd16b80be80] ref B L0: 42.5% 57.4%  0.1%\n",
      "[libx264 @ 0x7fd16b80be80] ref B L1: 99.3%  0.7%\n",
      "[libx264 @ 0x7fd16b80be80] kb/s:141.80\n",
      "[aac @ 0x7fd16b80d380] Qavg: 65528.172\n"
     ]
    }
   ],
   "source": [
    "# Audio + Image => Video\n",
    "print(test_tta.merge_video_file(file_name))"
   ]
  },
  {
   "cell_type": "code",
   "execution_count": 11,
   "id": "004bc195",
   "metadata": {},
   "outputs": [
    {
     "name": "stdout",
     "output_type": "stream",
     "text": [
      "0:00:00 Chapter 1\n",
      "0:25:04 Chaptor 2\n",
      "0:29:27 Chaptor 3\n",
      "0:34:22 Chaptor 4\n",
      "0:37:40 Chaptor 5\n",
      "0:40:06 Chaptor 6\n",
      "0:44:55 Chaptor 7\n",
      "0:47:10 Chaptor 8\n",
      "0:56:47 Chaptor 9\n",
      "0:57:15 Chaptor 10\n",
      "0:57:45 Chaptor 11\n",
      "0:58:36 Chaptor 12\n",
      "1:02:47 Chaptor 13\n",
      "1:03:19 Chaptor 14\n",
      "1:05:30 Chaptor 15\n",
      "1:09:50 Chaptor 16\n",
      "1:18:08 Chaptor 17\n",
      "1:20:32 Chaptor 18\n",
      "1:21:42 Chaptor 19\n",
      "1:22:27 Chaptor 20\n"
     ]
    }
   ],
   "source": [
    "print(test_tta.gen_youtube_chapter_marker(file_name))"
   ]
  },
  {
   "cell_type": "code",
   "execution_count": null,
   "id": "a692882a",
   "metadata": {},
   "outputs": [],
   "source": []
  }
 ],
 "metadata": {
  "kernelspec": {
   "display_name": "Python tts env",
   "language": "python",
   "name": "tts_env"
  },
  "language_info": {
   "codemirror_mode": {
    "name": "ipython",
    "version": 3
   },
   "file_extension": ".py",
   "mimetype": "text/x-python",
   "name": "python",
   "nbconvert_exporter": "python",
   "pygments_lexer": "ipython3",
   "version": "3.9.12"
  }
 },
 "nbformat": 4,
 "nbformat_minor": 5
}
